<svg xmlns="http://www.w3.org/2000/svg" version="1.1" xmlns:xlink="http://www.w3.org/1999/xlink" xmlns:svgjs="http://svgjs.dev/svgjs" width="1440" height="560" preserveAspectRatio="none" viewBox="0 0 1440 560"><g mask="url(&quot;#SvgjsMask1020&quot;)" fill="none"><rect width="1440" height="560" x="0" y="0" fill="url(&quot;#SvgjsLinearGradient1021&quot;)"></rect><path d="M1440 0L1400.8 0L1440 47.95z" fill="rgba(255, 255, 255, .1)"></path><path d="M1400.8 0L1440 47.95L1440 299.62L751.4599999999999 0z" fill="rgba(255, 255, 255, .075)"></path><path d="M751.4599999999999 0L1440 299.62L1440 359.79L339.18999999999994 0z" fill="rgba(255, 255, 255, .05)"></path><path d="M339.19000000000005 0L1440 359.79L1440 491.36L327.62000000000006 0z" fill="rgba(255, 255, 255, .025)"></path><path d="M0 560L35.29 560L0 283.05z" fill="rgba(0, 0, 0, .1)"></path><path d="M0 283.05L35.29 560L534.8199999999999 560L0 249.3z" fill="rgba(0, 0, 0, .075)"></path><path d="M0 249.3L534.8199999999999 560L542.17 560L0 152.51z" fill="rgba(0, 0, 0, .05)"></path><path d="M0 152.51L542.17 560L553.74 560L0 47.41z" fill="rgba(0, 0, 0, .025)"></path></g><defs><mask id="SvgjsMask1020"><rect width="1440" height="560" fill="#ffffff"></rect></mask><linearGradient x1="15.28%" y1="139.29%" x2="84.72%" y2="-39.29%" gradientUnits="userSpaceOnUse" id="SvgjsLinearGradient1021"><stop stop-color="#0e2a47" offset="0"></stop><stop stop-color="rgba(127, 0, 158, 1)" offset="1"></stop></linearGradient></defs></svg>